<svg width="160" height="104" viewBox="0 0 160 104" fill="none" xmlns="http://www.w3.org/2000/svg">
<defs>
  <linearGradient id="bg" x1="12" y1="10" x2="150" y2="95" gradientUnits="userSpaceOnUse">
    <stop stop-color="#F6FAFB"/>
    <stop offset="1" stop-color="#DCECF0"/>
  </linearGradient>
  <linearGradient id="blk" x1="82" y1="20" x2="122" y2="74" gradientUnits="userSpaceOnUse">
    <stop stop-color="#275663"/>
    <stop offset="1" stop-color="#3D7E8C"/>
  </linearGradient>
</defs>
<rect x="4" y="4" width="152" height="96" rx="18" fill="url(#bg)"/>
<rect x="25" y="53" width="34" height="27" rx="6" fill="#9CCAD3"/>
<rect x="33" y="61" width="6" height="6" rx="2" fill="#F7FAFB"/>
<rect x="45" y="61" width="6" height="6" rx="2" fill="#F7FAFB"/>
<rect x="33" y="71" width="6" height="6" rx="2" fill="#F7FAFB"/>
<rect x="45" y="71" width="6" height="6" rx="2" fill="#F7FAFB"/>
<rect x="64" y="40" width="40" height="40" rx="8" fill="#7FB4BF"/>
<rect x="73" y="50" width="6" height="6" rx="2" fill="#F7FAFB"/>
<rect x="85" y="50" width="6" height="6" rx="2" fill="#F7FAFB"/>
<rect x="73" y="62" width="6" height="6" rx="2" fill="#F7FAFB"/>
<rect x="85" y="62" width="6" height="6" rx="2" fill="#F7FAFB"/>
<path d="M114 32C114 26.477 118.477 22 124 22H127C132.523 22 137 26.477 137 32V72C137 77.523 132.523 82 127 82H114V32Z" fill="url(#blk)"/>
<rect x="119" y="37" width="13" height="5" rx="2.5" fill="#F7FAFB"/>
<rect x="119" y="47" width="13" height="5" rx="2.5" fill="#D7EDF1"/>
<rect x="119" y="57" width="13" height="5" rx="2.5" fill="#D7EDF1"/>
<circle cx="44" cy="28" r="7" fill="#6CAAB8"/>
<path d="M44 35V44" stroke="#6CAAB8" stroke-width="4" stroke-linecap="round"/>
<path d="M50 40L44 46L38 40" stroke="#6CAAB8" stroke-width="4" stroke-linecap="round" stroke-linejoin="round"/>
</svg>